<svg width="300" height="300" viewBox="0 0 300 300" fill="none" xmlns="http://www.w3.org/2000/svg">
<circle cx="150" cy="150" r="145" fill="#97E866" stroke="black" stroke-width="10"/>
<path d="M121.875 146.75C121.875 147.579 121.546 148.374 120.96 148.96C120.374 149.546 119.579 149.875 118.75 149.875C117.921 149.875 117.126 149.546 116.54 148.96C115.954 148.374 115.625 147.579 115.625 146.75C115.625 145.921 115.954 145.126 116.54 144.54C117.126 143.954 117.921 143.625 118.75 143.625C119.579 143.625 120.374 143.954 120.96 144.54C121.546 145.126 121.875 145.921 121.875 146.75ZM121.875 146.75H118.75M153.125 146.75C153.125 147.579 152.796 148.374 152.21 148.96C151.624 149.546 150.829 149.875 150 149.875C149.171 149.875 148.376 149.546 147.79 148.96C147.204 148.374 146.875 147.579 146.875 146.75C146.875 145.921 147.204 145.126 147.79 144.54C148.376 143.954 149.171 143.625 150 143.625C150.829 143.625 151.624 143.954 152.21 144.54C152.796 145.126 153.125 145.921 153.125 146.75ZM153.125 146.75H150M184.375 146.75C184.375 147.579 184.046 148.374 183.46 148.96C182.874 149.546 182.079 149.875 181.25 149.875C180.421 149.875 179.626 149.546 179.04 148.96C178.454 148.374 178.125 147.579 178.125 146.75C178.125 145.921 178.454 145.126 179.04 144.54C179.626 143.954 180.421 143.625 181.25 143.625C182.079 143.625 182.874 143.954 183.46 144.54C184.046 145.126 184.375 145.921 184.375 146.75ZM184.375 146.75H181.25M225 146.75C225 184.717 191.417 215.5 150 215.5C142.81 215.509 135.65 214.564 128.708 212.692C118.923 219.574 106.986 222.701 95.0833 221.5C93.76 221.372 92.4422 221.192 91.1333 220.958C95.2406 216.118 98.0456 210.31 99.2833 204.083C100.033 200.275 98.175 196.575 95.3917 193.867C82.75 181.567 75 164.992 75 146.75C75 108.783 108.583 78 150 78C191.417 78 225 108.783 225 146.75Z" stroke="black" stroke-width="10" stroke-linecap="round" stroke-linejoin="round"/>
</svg>
